<svg xmlns="http://www.w3.org/2000/svg" width="1800" height="760" viewBox="0 0 1800 760">
<style>
text { font-family: Arial, sans-serif; fill: #222; }
.axis { stroke: #333; stroke-width: 1; }
.grid { stroke: #dcdcdc; stroke-width: 1; }
</style>
<rect x="0" y="0" width="1800" height="760" fill="white"/>
<line class="grid" x1="90" y1="680.00" x2="1770" y2="680.00"/>
<text x="80" y="684.00" font-size="12" text-anchor="end">0</text>
<line class="grid" x1="90" y1="620.00" x2="1770" y2="620.00"/>
<text x="80" y="624.00" font-size="12" text-anchor="end">10</text>
<line class="grid" x1="90" y1="560.00" x2="1770" y2="560.00"/>
<text x="80" y="564.00" font-size="12" text-anchor="end">20</text>
<line class="grid" x1="90" y1="500.00" x2="1770" y2="500.00"/>
<text x="80" y="504.00" font-size="12" text-anchor="end">30</text>
<line class="grid" x1="90" y1="440.00" x2="1770" y2="440.00"/>
<text x="80" y="444.00" font-size="12" text-anchor="end">40</text>
<line class="grid" x1="90" y1="380.00" x2="1770" y2="380.00"/>
<text x="80" y="384.00" font-size="12" text-anchor="end">50</text>
<line class="grid" x1="90" y1="320.00" x2="1770" y2="320.00"/>
<text x="80" y="324.00" font-size="12" text-anchor="end">60</text>
<line class="grid" x1="90" y1="260.00" x2="1770" y2="260.00"/>
<text x="80" y="264.00" font-size="12" text-anchor="end">70</text>
<line class="grid" x1="90" y1="200.00" x2="1770" y2="200.00"/>
<text x="80" y="204.00" font-size="12" text-anchor="end">80</text>
<line class="grid" x1="90" y1="140.00" x2="1770" y2="140.00"/>
<text x="80" y="144.00" font-size="12" text-anchor="end">90</text>
<line class="grid" x1="90" y1="80.00" x2="1770" y2="80.00"/>
<text x="80" y="84.00" font-size="12" text-anchor="end">100</text>
<line class="axis" x1="90" y1="80" x2="90" y2="680"/>
<line class="axis" x1="90" y1="680" x2="1770" y2="680"/>
<rect x="90.00" y="463.11" width="11.23" height="216.89" fill="#d8a24a"/>
<rect x="90.00" y="290.81" width="11.23" height="172.30" fill="#4f9f8f"/>
<rect x="114.71" y="459.81" width="11.23" height="220.19" fill="#d8a24a"/>
<rect x="114.71" y="254.04" width="11.23" height="205.77" fill="#4f9f8f"/>
<rect x="139.41" y="459.54" width="11.23" height="220.46" fill="#d8a24a"/>
<rect x="139.41" y="257.44" width="11.23" height="202.09" fill="#4f9f8f"/>
<text x="145.03" y="698" font-size="10" text-anchor="middle">1960</text>
<rect x="164.12" y="470.61" width="11.23" height="209.39" fill="#d8a24a"/>
<rect x="164.12" y="286.71" width="11.23" height="183.89" fill="#4f9f8f"/>
<rect x="188.82" y="481.18" width="11.23" height="198.82" fill="#d8a24a"/>
<rect x="188.82" y="309.94" width="11.23" height="171.24" fill="#4f9f8f"/>
<rect x="213.53" y="483.32" width="11.23" height="196.68" fill="#d8a24a"/>
<rect x="213.53" y="317.59" width="11.23" height="165.73" fill="#4f9f8f"/>
<rect x="238.24" y="512.60" width="11.23" height="167.40" fill="#d8a24a"/>
<rect x="238.24" y="370.03" width="11.23" height="142.57" fill="#4f9f8f"/>
<rect x="262.94" y="535.50" width="11.23" height="144.50" fill="#d8a24a"/>
<rect x="262.94" y="405.78" width="11.23" height="129.72" fill="#4f9f8f"/>
<text x="268.56" y="698" font-size="10" text-anchor="middle">1965</text>
<rect x="287.65" y="523.57" width="11.23" height="156.43" fill="#d8a24a"/>
<rect x="287.65" y="382.95" width="11.23" height="140.63" fill="#4f9f8f"/>
<rect x="312.35" y="532.66" width="11.23" height="147.34" fill="#d8a24a"/>
<rect x="312.35" y="402.37" width="11.23" height="130.29" fill="#4f9f8f"/>
<rect x="337.06" y="520.67" width="11.23" height="159.33" fill="#d8a24a"/>
<rect x="337.06" y="393.02" width="11.23" height="127.65" fill="#4f9f8f"/>
<rect x="361.76" y="536.38" width="11.23" height="143.62" fill="#d8a24a"/>
<rect x="361.76" y="433.64" width="11.23" height="102.74" fill="#4f9f8f"/>
<rect x="386.47" y="541.17" width="11.23" height="138.83" fill="#d8a24a"/>
<rect x="386.47" y="443.23" width="11.23" height="97.94" fill="#4f9f8f"/>
<text x="392.09" y="698" font-size="10" text-anchor="middle">1970</text>
<rect x="411.18" y="528.34" width="11.23" height="151.66" fill="#d8a24a"/>
<rect x="411.18" y="431.26" width="11.23" height="97.09" fill="#4f9f8f"/>
<rect x="435.88" y="532.30" width="11.23" height="147.70" fill="#d8a24a"/>
<rect x="435.88" y="442.65" width="11.23" height="89.65" fill="#4f9f8f"/>
<rect x="460.59" y="536.65" width="11.23" height="143.35" fill="#d8a24a"/>
<rect x="460.59" y="455.86" width="11.23" height="80.79" fill="#4f9f8f"/>
<rect x="485.29" y="540.50" width="11.23" height="139.50" fill="#d8a24a"/>
<rect x="485.29" y="464.58" width="11.23" height="75.92" fill="#4f9f8f"/>
<rect x="510.00" y="531.43" width="11.23" height="148.57" fill="#d8a24a"/>
<rect x="510.00" y="457.57" width="11.23" height="73.86" fill="#4f9f8f"/>
<text x="515.61" y="698" font-size="10" text-anchor="middle">1975</text>
<rect x="534.71" y="514.57" width="11.23" height="165.43" fill="#d8a24a"/>
<rect x="534.71" y="448.47" width="11.23" height="66.10" fill="#4f9f8f"/>
<rect x="559.41" y="578.94" width="11.23" height="101.06" fill="#d8a24a"/>
<rect x="559.41" y="510.53" width="11.23" height="68.41" fill="#4f9f8f"/>
<rect x="584.12" y="323.16" width="11.23" height="356.84" fill="#d8a24a"/>
<rect x="584.12" y="289.53" width="11.23" height="33.63" fill="#4f9f8f"/>
<rect x="608.82" y="297.84" width="11.23" height="382.16" fill="#d8a24a"/>
<rect x="608.82" y="270.63" width="11.23" height="27.20" fill="#4f9f8f"/>
<rect x="633.53" y="300.84" width="11.23" height="379.16" fill="#d8a24a"/>
<rect x="633.53" y="274.92" width="11.23" height="25.93" fill="#4f9f8f"/>
<text x="639.14" y="698" font-size="10" text-anchor="middle">1980</text>
<rect x="658.24" y="304.56" width="11.23" height="375.44" fill="#d8a24a"/>
<rect x="658.24" y="280.10" width="11.23" height="24.46" fill="#4f9f8f"/>
<rect x="682.94" y="287.94" width="11.23" height="392.06" fill="#d8a24a"/>
<rect x="682.94" y="266.94" width="11.23" height="20.99" fill="#4f9f8f"/>
<rect x="707.65" y="282.30" width="11.23" height="397.70" fill="#d8a24a"/>
<rect x="707.65" y="263.65" width="11.23" height="18.65" fill="#4f9f8f"/>
<rect x="732.35" y="256.42" width="11.23" height="423.58" fill="#d8a24a"/>
<rect x="732.35" y="241.34" width="11.23" height="15.08" fill="#4f9f8f"/>
<rect x="757.06" y="344.95" width="11.23" height="335.05" fill="#d8a24a"/>
<rect x="757.06" y="322.17" width="11.23" height="22.79" fill="#4f9f8f"/>
<text x="762.67" y="698" font-size="10" text-anchor="middle">1985</text>
<rect x="781.76" y="510.46" width="11.23" height="169.54" fill="#d8a24a"/>
<rect x="781.76" y="475.64" width="11.23" height="34.82" fill="#4f9f8f"/>
<rect x="806.47" y="296.67" width="11.23" height="383.33" fill="#d8a24a"/>
<rect x="806.47" y="281.22" width="11.23" height="15.45" fill="#4f9f8f"/>
<rect x="831.18" y="321.99" width="11.23" height="358.01" fill="#d8a24a"/>
<rect x="831.18" y="304.23" width="11.23" height="17.77" fill="#4f9f8f"/>
<rect x="855.88" y="399.39" width="11.23" height="280.61" fill="#d8a24a"/>
<rect x="855.88" y="372.29" width="11.23" height="27.10" fill="#4f9f8f"/>
<rect x="880.59" y="548.19" width="11.23" height="131.81" fill="#d8a24a"/>
<rect x="880.59" y="512.02" width="11.23" height="36.17" fill="#4f9f8f"/>
<text x="886.20" y="698" font-size="10" text-anchor="middle">1990</text>
<rect x="905.29" y="600.04" width="11.23" height="79.96" fill="#d8a24a"/>
<rect x="905.29" y="546.02" width="11.23" height="54.02" fill="#4f9f8f"/>
<rect x="930.00" y="612.47" width="11.23" height="67.53" fill="#d8a24a"/>
<rect x="930.00" y="552.87" width="11.23" height="59.60" fill="#4f9f8f"/>
<rect x="954.71" y="608.67" width="11.23" height="71.33" fill="#d8a24a"/>
<rect x="954.71" y="543.07" width="11.23" height="65.60" fill="#4f9f8f"/>
<rect x="979.41" y="614.40" width="11.23" height="65.60" fill="#d8a24a"/>
<rect x="979.41" y="552.53" width="11.23" height="61.87" fill="#4f9f8f"/>
<rect x="1004.12" y="606.57" width="11.23" height="73.43" fill="#d8a24a"/>
<rect x="1004.12" y="534.93" width="11.23" height="71.64" fill="#4f9f8f"/>
<text x="1009.73" y="698" font-size="10" text-anchor="middle">1995</text>
<rect x="1028.82" y="600.33" width="11.23" height="79.67" fill="#d8a24a"/>
<rect x="1028.82" y="524.21" width="11.23" height="76.12" fill="#4f9f8f"/>
<rect x="1053.53" y="588.12" width="11.23" height="91.88" fill="#d8a24a"/>
<rect x="1053.53" y="498.65" width="11.23" height="89.47" fill="#4f9f8f"/>
<rect x="1078.24" y="588.72" width="11.23" height="91.28" fill="#d8a24a"/>
<rect x="1078.24" y="500.00" width="11.23" height="88.72" fill="#4f9f8f"/>
<rect x="1102.94" y="595.81" width="11.23" height="84.19" fill="#d8a24a"/>
<rect x="1102.94" y="513.43" width="11.23" height="82.37" fill="#4f9f8f"/>
<rect x="1127.65" y="573.55" width="11.23" height="106.45" fill="#d8a24a"/>
<rect x="1127.65" y="468.85" width="11.23" height="104.71" fill="#4f9f8f"/>
<text x="1133.26" y="698" font-size="10" text-anchor="middle">2000</text>
<rect x="1152.35" y="591.18" width="11.23" height="88.82" fill="#d8a24a"/>
<rect x="1152.35" y="504.60" width="11.23" height="86.58" fill="#4f9f8f"/>
<rect x="1177.06" y="588.41" width="11.23" height="91.59" fill="#d8a24a"/>
<rect x="1177.06" y="498.27" width="11.23" height="90.14" fill="#4f9f8f"/>
<rect x="1201.76" y="585.79" width="11.23" height="94.21" fill="#d8a24a"/>
<rect x="1201.76" y="492.99" width="11.23" height="92.80" fill="#4f9f8f"/>
<rect x="1226.47" y="580.45" width="11.23" height="99.55" fill="#d8a24a"/>
<rect x="1226.47" y="481.84" width="11.23" height="98.60" fill="#4f9f8f"/>
<rect x="1251.18" y="578.71" width="11.23" height="101.29" fill="#d8a24a"/>
<rect x="1251.18" y="478.49" width="11.23" height="100.22" fill="#4f9f8f"/>
<text x="1256.79" y="698" font-size="10" text-anchor="middle">2005</text>
<rect x="1275.88" y="594.07" width="11.23" height="85.93" fill="#d8a24a"/>
<rect x="1275.88" y="509.39" width="11.23" height="84.68" fill="#4f9f8f"/>
<rect x="1300.59" y="599.80" width="11.23" height="80.20" fill="#d8a24a"/>
<rect x="1300.59" y="520.39" width="11.23" height="79.40" fill="#4f9f8f"/>
<rect x="1325.29" y="597.71" width="11.23" height="82.29" fill="#d8a24a"/>
<rect x="1325.29" y="516.62" width="11.23" height="81.09" fill="#4f9f8f"/>
<rect x="1350.00" y="609.88" width="11.23" height="70.12" fill="#d8a24a"/>
<rect x="1350.00" y="540.63" width="11.23" height="69.25" fill="#4f9f8f"/>
<rect x="1374.71" y="603.09" width="11.23" height="76.91" fill="#d8a24a"/>
<rect x="1374.71" y="527.14" width="11.23" height="75.95" fill="#4f9f8f"/>
<text x="1380.32" y="698" font-size="10" text-anchor="middle">2010</text>
<rect x="1399.41" y="590.28" width="11.23" height="89.72" fill="#d8a24a"/>
<rect x="1399.41" y="501.14" width="11.23" height="89.14" fill="#4f9f8f"/>
<rect x="1424.12" y="608.28" width="11.23" height="71.72" fill="#d8a24a"/>
<rect x="1424.12" y="537.30" width="11.23" height="70.98" fill="#4f9f8f"/>
<rect x="1448.82" y="605.14" width="11.23" height="74.86" fill="#d8a24a"/>
<rect x="1448.82" y="530.46" width="11.23" height="74.68" fill="#4f9f8f"/>
<rect x="1473.53" y="610.66" width="11.23" height="69.34" fill="#d8a24a"/>
<rect x="1473.53" y="541.33" width="11.23" height="69.34" fill="#4f9f8f"/>
<rect x="1498.24" y="610.86" width="11.23" height="69.14" fill="#d8a24a"/>
<rect x="1498.24" y="542.01" width="11.23" height="68.84" fill="#4f9f8f"/>
<text x="1503.85" y="698" font-size="10" text-anchor="middle">2015</text>
<rect x="1522.94" y="607.93" width="11.23" height="72.07" fill="#d8a24a"/>
<rect x="1522.94" y="536.17" width="11.23" height="71.75" fill="#4f9f8f"/>
<rect x="1547.65" y="604.56" width="11.23" height="75.44" fill="#d8a24a"/>
<rect x="1547.65" y="529.62" width="11.23" height="74.94" fill="#4f9f8f"/>
<rect x="1572.35" y="610.17" width="11.23" height="69.83" fill="#d8a24a"/>
<rect x="1572.35" y="540.66" width="11.23" height="69.51" fill="#4f9f8f"/>
<rect x="1597.06" y="598.24" width="11.23" height="81.76" fill="#d8a24a"/>
<rect x="1597.06" y="517.12" width="11.23" height="81.13" fill="#4f9f8f"/>
<rect x="1621.76" y="592.00" width="11.23" height="88.00" fill="#d8a24a"/>
<rect x="1621.76" y="504.30" width="11.23" height="87.70" fill="#4f9f8f"/>
<text x="1627.38" y="698" font-size="10" text-anchor="middle">2020</text>
<rect x="1646.47" y="593.55" width="11.23" height="86.45" fill="#d8a24a"/>
<rect x="1646.47" y="507.42" width="11.23" height="86.13" fill="#4f9f8f"/>
<rect x="1671.18" y="571.08" width="11.23" height="108.92" fill="#d8a24a"/>
<rect x="1671.18" y="462.37" width="11.23" height="108.71" fill="#4f9f8f"/>
<rect x="1695.88" y="579.09" width="11.23" height="100.91" fill="#d8a24a"/>
<rect x="1695.88" y="478.36" width="11.23" height="100.73" fill="#4f9f8f"/>
<rect x="1720.59" y="585.31" width="11.23" height="94.69" fill="#d8a24a"/>
<rect x="1720.59" y="491.30" width="11.23" height="94.01" fill="#4f9f8f"/>
<rect x="1745.29" y="578.85" width="11.23" height="101.15" fill="#d8a24a"/>
<rect x="1745.29" y="477.87" width="11.23" height="100.98" fill="#4f9f8f"/>
<text x="1750.91" y="698" font-size="10" text-anchor="middle">2025</text>
<text x="900.00" y="34" font-size="20" text-anchor="middle">Aandeel van twee landschap-gebaseerde vogelclusters in totaal getelde vogels (1958-2025)</text>
<text x="900.00" y="740" font-size="13" text-anchor="middle">Jaar</text>
<text x="22" y="380.00" font-size="13" text-anchor="middle" transform="rotate(-90 22 380.00)">Percentage van totaal getelde vogels</text>
<rect x="1410" y="50" width="18" height="18" fill="#d8a24a"/>
<text x="1434" y="64" font-size="13">open &amp; droog (2+6)</text>
<rect x="1590" y="50" width="18" height="18" fill="#4f9f8f"/>
<text x="1614" y="64" font-size="13">open en vochtig (3+5)</text>
</svg>