<svg xmlns="http://www.w3.org/2000/svg" width="1800" height="760" viewBox="0 0 1800 760">
<style>text{font-family:Arial,sans-serif;fill:#222}.axis{stroke:#333;stroke-width:1}.grid{stroke:#ddd;stroke-width:1}</style>
<rect x="0" y="0" width="1800" height="760" fill="white"/>
<line class="grid" x1="90" y1="680.00" x2="1760" y2="680.00"/>
<text x="80" y="684.00" font-size="12" text-anchor="end">0</text>
<line class="grid" x1="90" y1="620.00" x2="1760" y2="620.00"/>
<text x="80" y="624.00" font-size="12" text-anchor="end">10</text>
<line class="grid" x1="90" y1="560.00" x2="1760" y2="560.00"/>
<text x="80" y="564.00" font-size="12" text-anchor="end">20</text>
<line class="grid" x1="90" y1="500.00" x2="1760" y2="500.00"/>
<text x="80" y="504.00" font-size="12" text-anchor="end">30</text>
<line class="grid" x1="90" y1="440.00" x2="1760" y2="440.00"/>
<text x="80" y="444.00" font-size="12" text-anchor="end">40</text>
<line class="grid" x1="90" y1="380.00" x2="1760" y2="380.00"/>
<text x="80" y="384.00" font-size="12" text-anchor="end">50</text>
<line class="grid" x1="90" y1="320.00" x2="1760" y2="320.00"/>
<text x="80" y="324.00" font-size="12" text-anchor="end">60</text>
<line class="grid" x1="90" y1="260.00" x2="1760" y2="260.00"/>
<text x="80" y="264.00" font-size="12" text-anchor="end">70</text>
<line class="grid" x1="90" y1="200.00" x2="1760" y2="200.00"/>
<text x="80" y="204.00" font-size="12" text-anchor="end">80</text>
<line class="grid" x1="90" y1="140.00" x2="1760" y2="140.00"/>
<text x="80" y="144.00" font-size="12" text-anchor="end">90</text>
<line class="grid" x1="90" y1="80.00" x2="1760" y2="80.00"/>
<text x="80" y="84.00" font-size="12" text-anchor="end">100</text>
<line class="axis" x1="90" y1="80" x2="90" y2="680"/>
<line class="axis" x1="90" y1="680" x2="1760" y2="680"/>
<rect x="92.69" y="484.52" width="21.55" height="195.48" fill="#d8a24a"/>
<rect x="92.69" y="303.13" width="21.55" height="181.39" fill="#4f9f8f"/>
<rect x="119.63" y="494.93" width="21.55" height="185.07" fill="#d8a24a"/>
<rect x="119.63" y="319.79" width="21.55" height="175.14" fill="#4f9f8f"/>
<rect x="146.56" y="505.13" width="21.55" height="174.87" fill="#d8a24a"/>
<rect x="146.56" y="338.99" width="21.55" height="166.14" fill="#4f9f8f"/>
<rect x="173.50" y="515.90" width="21.55" height="164.10" fill="#d8a24a"/>
<rect x="173.50" y="360.15" width="21.55" height="155.74" fill="#4f9f8f"/>
<rect x="200.44" y="524.46" width="21.55" height="155.54" fill="#d8a24a"/>
<rect x="200.44" y="376.56" width="21.55" height="147.89" fill="#4f9f8f"/>
<text x="211.21" y="698" font-size="10" text-anchor="middle">1965</text>
<rect x="227.37" y="535.02" width="21.55" height="144.98" fill="#d8a24a"/>
<rect x="227.37" y="396.60" width="21.55" height="138.42" fill="#4f9f8f"/>
<rect x="254.31" y="545.53" width="21.55" height="134.47" fill="#d8a24a"/>
<rect x="254.31" y="416.71" width="21.55" height="128.82" fill="#4f9f8f"/>
<rect x="281.24" y="551.58" width="21.55" height="128.42" fill="#d8a24a"/>
<rect x="281.24" y="428.64" width="21.55" height="122.93" fill="#4f9f8f"/>
<rect x="308.18" y="555.96" width="21.55" height="124.04" fill="#d8a24a"/>
<rect x="308.18" y="437.90" width="21.55" height="118.07" fill="#4f9f8f"/>
<rect x="335.11" y="563.27" width="21.55" height="116.73" fill="#d8a24a"/>
<rect x="335.11" y="452.97" width="21.55" height="110.30" fill="#4f9f8f"/>
<text x="345.89" y="698" font-size="10" text-anchor="middle">1970</text>
<rect x="362.05" y="570.33" width="21.55" height="109.67" fill="#d8a24a"/>
<rect x="362.05" y="466.98" width="21.55" height="103.36" fill="#4f9f8f"/>
<rect x="388.98" y="577.75" width="21.55" height="102.25" fill="#d8a24a"/>
<rect x="388.98" y="481.45" width="21.55" height="96.30" fill="#4f9f8f"/>
<rect x="415.92" y="581.89" width="21.55" height="98.11" fill="#d8a24a"/>
<rect x="415.92" y="490.02" width="21.55" height="91.87" fill="#4f9f8f"/>
<rect x="442.85" y="586.01" width="21.55" height="93.99" fill="#d8a24a"/>
<rect x="442.85" y="498.85" width="21.55" height="87.16" fill="#4f9f8f"/>
<rect x="469.79" y="590.51" width="21.55" height="89.49" fill="#d8a24a"/>
<rect x="469.79" y="508.18" width="21.55" height="82.33" fill="#4f9f8f"/>
<text x="480.56" y="698" font-size="10" text-anchor="middle">1975</text>
<rect x="496.73" y="595.05" width="21.55" height="84.95" fill="#d8a24a"/>
<rect x="496.73" y="517.33" width="21.55" height="77.71" fill="#4f9f8f"/>
<rect x="523.66" y="598.91" width="21.55" height="81.09" fill="#d8a24a"/>
<rect x="523.66" y="525.00" width="21.55" height="73.90" fill="#4f9f8f"/>
<rect x="550.60" y="602.34" width="21.55" height="77.66" fill="#d8a24a"/>
<rect x="550.60" y="532.14" width="21.55" height="70.19" fill="#4f9f8f"/>
<rect x="577.53" y="606.14" width="21.55" height="73.86" fill="#d8a24a"/>
<rect x="577.53" y="540.14" width="21.55" height="66.00" fill="#4f9f8f"/>
<rect x="604.47" y="610.41" width="21.55" height="69.59" fill="#d8a24a"/>
<rect x="604.47" y="548.41" width="21.55" height="62.00" fill="#4f9f8f"/>
<text x="615.24" y="698" font-size="10" text-anchor="middle">1980</text>
<rect x="631.40" y="614.30" width="21.55" height="65.70" fill="#d8a24a"/>
<rect x="631.40" y="555.80" width="21.55" height="58.50" fill="#4f9f8f"/>
<rect x="658.34" y="618.30" width="21.55" height="61.70" fill="#d8a24a"/>
<rect x="658.34" y="563.34" width="21.55" height="54.96" fill="#4f9f8f"/>
<rect x="685.27" y="621.66" width="21.55" height="58.34" fill="#d8a24a"/>
<rect x="685.27" y="569.73" width="21.55" height="51.93" fill="#4f9f8f"/>
<rect x="712.21" y="625.14" width="21.55" height="54.86" fill="#d8a24a"/>
<rect x="712.21" y="576.47" width="21.55" height="48.66" fill="#4f9f8f"/>
<rect x="739.15" y="628.03" width="21.55" height="51.97" fill="#d8a24a"/>
<rect x="739.15" y="581.87" width="21.55" height="46.16" fill="#4f9f8f"/>
<text x="749.92" y="698" font-size="10" text-anchor="middle">1985</text>
<rect x="766.08" y="629.77" width="21.55" height="50.23" fill="#d8a24a"/>
<rect x="766.08" y="584.70" width="21.55" height="45.07" fill="#4f9f8f"/>
<rect x="793.02" y="631.23" width="21.55" height="48.77" fill="#d8a24a"/>
<rect x="793.02" y="587.21" width="21.55" height="44.02" fill="#4f9f8f"/>
<rect x="819.95" y="630.31" width="21.55" height="49.69" fill="#d8a24a"/>
<rect x="819.95" y="584.95" width="21.55" height="45.36" fill="#4f9f8f"/>
<rect x="846.89" y="628.77" width="21.55" height="51.23" fill="#d8a24a"/>
<rect x="846.89" y="581.56" width="21.55" height="47.21" fill="#4f9f8f"/>
<rect x="873.82" y="626.22" width="21.55" height="53.78" fill="#d8a24a"/>
<rect x="873.82" y="575.93" width="21.55" height="50.29" fill="#4f9f8f"/>
<text x="884.60" y="698" font-size="10" text-anchor="middle">1990</text>
<rect x="900.76" y="623.55" width="21.55" height="56.45" fill="#d8a24a"/>
<rect x="900.76" y="570.04" width="21.55" height="53.51" fill="#4f9f8f"/>
<rect x="927.69" y="619.59" width="21.55" height="60.41" fill="#d8a24a"/>
<rect x="927.69" y="561.65" width="21.55" height="57.94" fill="#4f9f8f"/>
<rect x="954.63" y="615.57" width="21.55" height="64.43" fill="#d8a24a"/>
<rect x="954.63" y="553.39" width="21.55" height="62.18" fill="#4f9f8f"/>
<rect x="981.56" y="609.07" width="21.55" height="70.93" fill="#d8a24a"/>
<rect x="981.56" y="540.21" width="21.55" height="68.86" fill="#4f9f8f"/>
<rect x="1008.50" y="604.73" width="21.55" height="75.27" fill="#d8a24a"/>
<rect x="1008.50" y="531.19" width="21.55" height="73.54" fill="#4f9f8f"/>
<text x="1019.27" y="698" font-size="10" text-anchor="middle">1995</text>
<rect x="1035.44" y="601.88" width="21.55" height="78.12" fill="#d8a24a"/>
<rect x="1035.44" y="525.13" width="21.55" height="76.75" fill="#4f9f8f"/>
<rect x="1062.37" y="596.49" width="21.55" height="83.51" fill="#d8a24a"/>
<rect x="1062.37" y="514.19" width="21.55" height="82.30" fill="#4f9f8f"/>
<rect x="1089.31" y="593.03" width="21.55" height="86.97" fill="#d8a24a"/>
<rect x="1089.31" y="507.21" width="21.55" height="85.82" fill="#4f9f8f"/>
<rect x="1116.24" y="590.44" width="21.55" height="89.56" fill="#d8a24a"/>
<rect x="1116.24" y="501.97" width="21.55" height="88.47" fill="#4f9f8f"/>
<rect x="1143.18" y="588.31" width="21.55" height="91.69" fill="#d8a24a"/>
<rect x="1143.18" y="497.46" width="21.55" height="90.85" fill="#4f9f8f"/>
<text x="1153.95" y="698" font-size="10" text-anchor="middle">2000</text>
<rect x="1170.11" y="587.24" width="21.55" height="92.76" fill="#d8a24a"/>
<rect x="1170.11" y="495.08" width="21.55" height="92.16" fill="#4f9f8f"/>
<rect x="1197.05" y="585.76" width="21.55" height="94.24" fill="#d8a24a"/>
<rect x="1197.05" y="491.96" width="21.55" height="93.80" fill="#4f9f8f"/>
<rect x="1223.98" y="585.51" width="21.55" height="94.49" fill="#d8a24a"/>
<rect x="1223.98" y="491.38" width="21.55" height="94.13" fill="#4f9f8f"/>
<rect x="1250.92" y="589.26" width="21.55" height="90.74" fill="#d8a24a"/>
<rect x="1250.92" y="498.75" width="21.55" height="90.51" fill="#4f9f8f"/>
<rect x="1277.85" y="590.19" width="21.55" height="89.81" fill="#d8a24a"/>
<rect x="1277.85" y="500.46" width="21.55" height="89.72" fill="#4f9f8f"/>
<text x="1288.63" y="698" font-size="10" text-anchor="middle">2005</text>
<rect x="1304.79" y="593.16" width="21.55" height="86.84" fill="#d8a24a"/>
<rect x="1304.79" y="506.44" width="21.55" height="86.72" fill="#4f9f8f"/>
<rect x="1331.73" y="595.55" width="21.55" height="84.45" fill="#d8a24a"/>
<rect x="1331.73" y="511.26" width="21.55" height="84.29" fill="#4f9f8f"/>
<rect x="1358.66" y="596.87" width="21.55" height="83.13" fill="#d8a24a"/>
<rect x="1358.66" y="513.95" width="21.55" height="82.92" fill="#4f9f8f"/>
<rect x="1385.60" y="601.01" width="21.55" height="78.99" fill="#d8a24a"/>
<rect x="1385.60" y="522.28" width="21.55" height="78.73" fill="#4f9f8f"/>
<rect x="1412.53" y="602.44" width="21.55" height="77.56" fill="#d8a24a"/>
<rect x="1412.53" y="525.16" width="21.55" height="77.27" fill="#4f9f8f"/>
<text x="1423.31" y="698" font-size="10" text-anchor="middle">2010</text>
<rect x="1439.47" y="603.89" width="21.55" height="76.11" fill="#d8a24a"/>
<rect x="1439.47" y="528.07" width="21.55" height="75.82" fill="#4f9f8f"/>
<rect x="1466.40" y="605.65" width="21.55" height="74.35" fill="#d8a24a"/>
<rect x="1466.40" y="531.60" width="21.55" height="74.05" fill="#4f9f8f"/>
<rect x="1493.34" y="605.32" width="21.55" height="74.68" fill="#d8a24a"/>
<rect x="1493.34" y="530.91" width="21.55" height="74.41" fill="#4f9f8f"/>
<rect x="1520.27" y="605.46" width="21.55" height="74.54" fill="#d8a24a"/>
<rect x="1520.27" y="531.21" width="21.55" height="74.25" fill="#4f9f8f"/>
<rect x="1547.21" y="608.27" width="21.55" height="71.73" fill="#d8a24a"/>
<rect x="1547.21" y="536.83" width="21.55" height="71.44" fill="#4f9f8f"/>
<text x="1557.98" y="698" font-size="10" text-anchor="middle">2015</text>
<rect x="1574.15" y="606.79" width="21.55" height="73.21" fill="#d8a24a"/>
<rect x="1574.15" y="533.91" width="21.55" height="72.88" fill="#4f9f8f"/>
<rect x="1601.08" y="604.92" width="21.55" height="75.08" fill="#d8a24a"/>
<rect x="1601.08" y="530.17" width="21.55" height="74.74" fill="#4f9f8f"/>
<rect x="1628.02" y="602.47" width="21.55" height="77.53" fill="#d8a24a"/>
<rect x="1628.02" y="525.33" width="21.55" height="77.14" fill="#4f9f8f"/>
<rect x="1654.95" y="596.79" width="21.55" height="83.21" fill="#d8a24a"/>
<rect x="1654.95" y="513.95" width="21.55" height="82.84" fill="#4f9f8f"/>
<rect x="1681.89" y="592.67" width="21.55" height="87.33" fill="#d8a24a"/>
<rect x="1681.89" y="505.69" width="21.55" height="86.98" fill="#4f9f8f"/>
<text x="1692.66" y="698" font-size="10" text-anchor="middle">2020</text>
<rect x="1708.82" y="589.94" width="21.55" height="90.06" fill="#d8a24a"/>
<rect x="1708.82" y="500.23" width="21.55" height="89.71" fill="#4f9f8f"/>
<rect x="1735.76" y="585.47" width="21.55" height="94.53" fill="#d8a24a"/>
<rect x="1735.76" y="491.26" width="21.55" height="94.20" fill="#4f9f8f"/>
<text x="900.00" y="34" font-size="24" text-anchor="middle">Vogels van het Open Landschap</text>
<text x="900.00" y="740" font-size="13" text-anchor="middle">Jaar</text>
<text x="22" y="380.00" font-size="13" text-anchor="middle" transform="rotate(-90 22 380.00)">Percentage van totaal getelde vogels (excl. meeuwen)</text>
<rect x="1460" y="52" width="18" height="18" fill="#d8a24a"/>
<text x="1484" y="66" font-size="13">droog</text>
<rect x="1460" y="76" width="18" height="18" fill="#4f9f8f"/>
<text x="1484" y="90" font-size="13">vochtig</text>
<text x="90" y="722" font-size="11" fill="#666">Gecentreerd 7-jaarsvenster: jaren 1961-2022</text>
</svg>