<svg xmlns="http://www.w3.org/2000/svg" width="1800" height="760" viewBox="0 0 1800 760">
<style>
text { font-family: Arial, sans-serif; fill: #222; }
.axis { stroke: #333; stroke-width: 1; }
.grid { stroke: #dcdcdc; stroke-width: 1; }
</style>
<rect x="0" y="0" width="1800" height="760" fill="white"/>
<line class="grid" x1="90" y1="680.00" x2="1770" y2="680.00"/>
<text x="80" y="684.00" font-size="12" text-anchor="end">0</text>
<line class="grid" x1="90" y1="620.00" x2="1770" y2="620.00"/>
<text x="80" y="624.00" font-size="12" text-anchor="end">10</text>
<line class="grid" x1="90" y1="560.00" x2="1770" y2="560.00"/>
<text x="80" y="564.00" font-size="12" text-anchor="end">20</text>
<line class="grid" x1="90" y1="500.00" x2="1770" y2="500.00"/>
<text x="80" y="504.00" font-size="12" text-anchor="end">30</text>
<line class="grid" x1="90" y1="440.00" x2="1770" y2="440.00"/>
<text x="80" y="444.00" font-size="12" text-anchor="end">40</text>
<line class="grid" x1="90" y1="380.00" x2="1770" y2="380.00"/>
<text x="80" y="384.00" font-size="12" text-anchor="end">50</text>
<line class="grid" x1="90" y1="320.00" x2="1770" y2="320.00"/>
<text x="80" y="324.00" font-size="12" text-anchor="end">60</text>
<line class="grid" x1="90" y1="260.00" x2="1770" y2="260.00"/>
<text x="80" y="264.00" font-size="12" text-anchor="end">70</text>
<line class="grid" x1="90" y1="200.00" x2="1770" y2="200.00"/>
<text x="80" y="204.00" font-size="12" text-anchor="end">80</text>
<line class="grid" x1="90" y1="140.00" x2="1770" y2="140.00"/>
<text x="80" y="144.00" font-size="12" text-anchor="end">90</text>
<line class="grid" x1="90" y1="80.00" x2="1770" y2="80.00"/>
<text x="80" y="84.00" font-size="12" text-anchor="end">100</text>
<line class="axis" x1="90" y1="80" x2="90" y2="680"/>
<line class="axis" x1="90" y1="680" x2="1770" y2="680"/>
<rect x="90.00" y="463.50" width="11.23" height="216.50" fill="#d8a24a"/>
<rect x="90.00" y="288.95" width="11.23" height="174.55" fill="#4f9f8f"/>
<rect x="114.71" y="454.24" width="11.23" height="225.76" fill="#d8a24a"/>
<rect x="114.71" y="242.31" width="11.23" height="211.93" fill="#4f9f8f"/>
<rect x="139.41" y="465.24" width="11.23" height="214.76" fill="#d8a24a"/>
<rect x="139.41" y="267.18" width="11.23" height="198.06" fill="#4f9f8f"/>
<text x="145.03" y="698" font-size="10" text-anchor="middle">1960</text>
<rect x="164.12" y="472.57" width="11.23" height="207.43" fill="#d8a24a"/>
<rect x="164.12" y="288.18" width="11.23" height="184.39" fill="#4f9f8f"/>
<rect x="188.82" y="485.16" width="11.23" height="194.84" fill="#d8a24a"/>
<rect x="188.82" y="315.12" width="11.23" height="170.05" fill="#4f9f8f"/>
<rect x="213.53" y="483.63" width="11.23" height="196.37" fill="#d8a24a"/>
<rect x="213.53" y="314.47" width="11.23" height="169.16" fill="#4f9f8f"/>
<rect x="238.24" y="514.79" width="11.23" height="165.21" fill="#d8a24a"/>
<rect x="238.24" y="372.74" width="11.23" height="142.05" fill="#4f9f8f"/>
<rect x="262.94" y="535.90" width="11.23" height="144.10" fill="#d8a24a"/>
<rect x="262.94" y="406.08" width="11.23" height="129.82" fill="#4f9f8f"/>
<text x="268.56" y="698" font-size="10" text-anchor="middle">1965</text>
<rect x="287.65" y="525.45" width="11.23" height="154.55" fill="#d8a24a"/>
<rect x="287.65" y="385.63" width="11.23" height="139.82" fill="#4f9f8f"/>
<rect x="312.35" y="530.07" width="11.23" height="149.93" fill="#d8a24a"/>
<rect x="312.35" y="396.01" width="11.23" height="134.06" fill="#4f9f8f"/>
<rect x="337.06" y="520.82" width="11.23" height="159.18" fill="#d8a24a"/>
<rect x="337.06" y="391.18" width="11.23" height="129.64" fill="#4f9f8f"/>
<rect x="361.76" y="535.51" width="11.23" height="144.49" fill="#d8a24a"/>
<rect x="361.76" y="429.39" width="11.23" height="106.13" fill="#4f9f8f"/>
<rect x="386.47" y="540.42" width="11.23" height="139.58" fill="#d8a24a"/>
<rect x="386.47" y="439.08" width="11.23" height="101.33" fill="#4f9f8f"/>
<text x="392.09" y="698" font-size="10" text-anchor="middle">1970</text>
<rect x="411.18" y="530.00" width="11.23" height="150.00" fill="#d8a24a"/>
<rect x="411.18" y="431.29" width="11.23" height="98.71" fill="#4f9f8f"/>
<rect x="435.88" y="533.58" width="11.23" height="146.42" fill="#d8a24a"/>
<rect x="435.88" y="441.38" width="11.23" height="92.20" fill="#4f9f8f"/>
<rect x="460.59" y="557.33" width="11.23" height="122.67" fill="#d8a24a"/>
<rect x="460.59" y="470.43" width="11.23" height="86.90" fill="#4f9f8f"/>
<rect x="485.29" y="553.96" width="11.23" height="126.04" fill="#d8a24a"/>
<rect x="485.29" y="461.31" width="11.23" height="92.65" fill="#4f9f8f"/>
<rect x="510.00" y="549.96" width="11.23" height="130.04" fill="#d8a24a"/>
<rect x="510.00" y="462.28" width="11.23" height="87.68" fill="#4f9f8f"/>
<text x="515.61" y="698" font-size="10" text-anchor="middle">1975</text>
<rect x="534.71" y="535.31" width="11.23" height="144.69" fill="#d8a24a"/>
<rect x="534.71" y="447.42" width="11.23" height="87.89" fill="#4f9f8f"/>
<rect x="559.41" y="572.17" width="11.23" height="107.83" fill="#d8a24a"/>
<rect x="559.41" y="483.56" width="11.23" height="88.61" fill="#4f9f8f"/>
<rect x="584.12" y="403.26" width="11.23" height="276.74" fill="#d8a24a"/>
<rect x="584.12" y="352.12" width="11.23" height="51.14" fill="#4f9f8f"/>
<rect x="608.82" y="385.06" width="11.23" height="294.94" fill="#d8a24a"/>
<rect x="608.82" y="339.93" width="11.23" height="45.13" fill="#4f9f8f"/>
<rect x="633.53" y="395.08" width="11.23" height="284.92" fill="#d8a24a"/>
<rect x="633.53" y="353.56" width="11.23" height="41.52" fill="#4f9f8f"/>
<text x="639.14" y="698" font-size="10" text-anchor="middle">1980</text>
<rect x="658.24" y="390.78" width="11.23" height="289.22" fill="#d8a24a"/>
<rect x="658.24" y="354.36" width="11.23" height="36.43" fill="#4f9f8f"/>
<rect x="682.94" y="363.78" width="11.23" height="316.22" fill="#d8a24a"/>
<rect x="682.94" y="328.48" width="11.23" height="35.30" fill="#4f9f8f"/>
<rect x="707.65" y="391.50" width="11.23" height="288.50" fill="#d8a24a"/>
<rect x="707.65" y="364.71" width="11.23" height="26.79" fill="#4f9f8f"/>
<rect x="732.35" y="414.73" width="11.23" height="265.27" fill="#d8a24a"/>
<rect x="732.35" y="390.45" width="11.23" height="24.29" fill="#4f9f8f"/>
<rect x="757.06" y="419.63" width="11.23" height="260.37" fill="#d8a24a"/>
<rect x="757.06" y="386.21" width="11.23" height="33.42" fill="#4f9f8f"/>
<text x="762.67" y="698" font-size="10" text-anchor="middle">1985</text>
<rect x="781.76" y="552.93" width="11.23" height="127.07" fill="#d8a24a"/>
<rect x="781.76" y="506.50" width="11.23" height="46.43" fill="#4f9f8f"/>
<rect x="806.47" y="401.60" width="11.23" height="278.40" fill="#d8a24a"/>
<rect x="806.47" y="367.30" width="11.23" height="34.30" fill="#4f9f8f"/>
<rect x="831.18" y="402.88" width="11.23" height="277.12" fill="#d8a24a"/>
<rect x="831.18" y="373.77" width="11.23" height="29.12" fill="#4f9f8f"/>
<rect x="855.88" y="473.90" width="11.23" height="206.10" fill="#d8a24a"/>
<rect x="855.88" y="432.34" width="11.23" height="41.56" fill="#4f9f8f"/>
<rect x="880.59" y="586.45" width="11.23" height="93.55" fill="#d8a24a"/>
<rect x="880.59" y="541.05" width="11.23" height="45.40" fill="#4f9f8f"/>
<text x="886.20" y="698" font-size="10" text-anchor="middle">1990</text>
<rect x="905.29" y="616.54" width="11.23" height="63.46" fill="#d8a24a"/>
<rect x="905.29" y="566.23" width="11.23" height="50.32" fill="#4f9f8f"/>
<rect x="930.00" y="622.57" width="11.23" height="57.43" fill="#d8a24a"/>
<rect x="930.00" y="569.45" width="11.23" height="53.12" fill="#4f9f8f"/>
<rect x="954.71" y="618.86" width="11.23" height="61.14" fill="#d8a24a"/>
<rect x="954.71" y="560.98" width="11.23" height="57.88" fill="#4f9f8f"/>
<rect x="979.41" y="620.03" width="11.23" height="59.97" fill="#d8a24a"/>
<rect x="979.41" y="563.14" width="11.23" height="56.89" fill="#4f9f8f"/>
<rect x="1004.12" y="610.78" width="11.23" height="69.22" fill="#d8a24a"/>
<rect x="1004.12" y="542.92" width="11.23" height="67.85" fill="#4f9f8f"/>
<text x="1009.73" y="698" font-size="10" text-anchor="middle">1995</text>
<rect x="1028.82" y="599.47" width="11.23" height="80.53" fill="#d8a24a"/>
<rect x="1028.82" y="521.40" width="11.23" height="78.07" fill="#4f9f8f"/>
<rect x="1053.53" y="596.43" width="11.23" height="83.57" fill="#d8a24a"/>
<rect x="1053.53" y="514.92" width="11.23" height="81.50" fill="#4f9f8f"/>
<rect x="1078.24" y="594.96" width="11.23" height="85.04" fill="#d8a24a"/>
<rect x="1078.24" y="511.53" width="11.23" height="83.44" fill="#4f9f8f"/>
<rect x="1102.94" y="602.60" width="11.23" height="77.40" fill="#d8a24a"/>
<rect x="1102.94" y="526.64" width="11.23" height="75.96" fill="#4f9f8f"/>
<rect x="1127.65" y="589.02" width="11.23" height="90.98" fill="#d8a24a"/>
<rect x="1127.65" y="499.33" width="11.23" height="89.68" fill="#4f9f8f"/>
<text x="1133.26" y="698" font-size="10" text-anchor="middle">2000</text>
<rect x="1152.35" y="596.23" width="11.23" height="83.77" fill="#d8a24a"/>
<rect x="1152.35" y="514.14" width="11.23" height="82.09" fill="#4f9f8f"/>
<rect x="1177.06" y="596.23" width="11.23" height="83.77" fill="#d8a24a"/>
<rect x="1177.06" y="513.74" width="11.23" height="82.49" fill="#4f9f8f"/>
<rect x="1201.76" y="600.21" width="11.23" height="79.79" fill="#d8a24a"/>
<rect x="1201.76" y="521.40" width="11.23" height="78.82" fill="#4f9f8f"/>
<rect x="1226.47" y="593.52" width="11.23" height="86.48" fill="#d8a24a"/>
<rect x="1226.47" y="507.65" width="11.23" height="85.87" fill="#4f9f8f"/>
<rect x="1251.18" y="588.44" width="11.23" height="91.56" fill="#d8a24a"/>
<rect x="1251.18" y="497.76" width="11.23" height="90.68" fill="#4f9f8f"/>
<text x="1256.79" y="698" font-size="10" text-anchor="middle">2005</text>
<rect x="1275.88" y="598.48" width="11.23" height="81.52" fill="#d8a24a"/>
<rect x="1275.88" y="517.71" width="11.23" height="80.77" fill="#4f9f8f"/>
<rect x="1300.59" y="601.90" width="11.23" height="78.10" fill="#d8a24a"/>
<rect x="1300.59" y="524.37" width="11.23" height="77.53" fill="#4f9f8f"/>
<rect x="1325.29" y="604.69" width="11.23" height="75.31" fill="#d8a24a"/>
<rect x="1325.29" y="530.47" width="11.23" height="74.22" fill="#4f9f8f"/>
<rect x="1350.00" y="606.46" width="11.23" height="73.54" fill="#d8a24a"/>
<rect x="1350.00" y="533.94" width="11.23" height="72.53" fill="#4f9f8f"/>
<rect x="1374.71" y="609.49" width="11.23" height="70.51" fill="#d8a24a"/>
<rect x="1374.71" y="539.72" width="11.23" height="69.77" fill="#4f9f8f"/>
<text x="1380.32" y="698" font-size="10" text-anchor="middle">2010</text>
<rect x="1399.41" y="590.95" width="11.23" height="89.05" fill="#d8a24a"/>
<rect x="1399.41" y="502.87" width="11.23" height="88.08" fill="#4f9f8f"/>
<rect x="1424.12" y="603.44" width="11.23" height="76.56" fill="#d8a24a"/>
<rect x="1424.12" y="527.46" width="11.23" height="75.98" fill="#4f9f8f"/>
<rect x="1448.82" y="596.98" width="11.23" height="83.02" fill="#d8a24a"/>
<rect x="1448.82" y="514.71" width="11.23" height="82.27" fill="#4f9f8f"/>
<rect x="1473.53" y="603.46" width="11.23" height="76.54" fill="#d8a24a"/>
<rect x="1473.53" y="527.58" width="11.23" height="75.88" fill="#4f9f8f"/>
<rect x="1498.24" y="601.97" width="11.23" height="78.03" fill="#d8a24a"/>
<rect x="1498.24" y="524.79" width="11.23" height="77.18" fill="#4f9f8f"/>
<text x="1503.85" y="698" font-size="10" text-anchor="middle">2015</text>
<rect x="1522.94" y="603.07" width="11.23" height="76.93" fill="#d8a24a"/>
<rect x="1522.94" y="527.17" width="11.23" height="75.89" fill="#4f9f8f"/>
<rect x="1547.65" y="603.40" width="11.23" height="76.60" fill="#d8a24a"/>
<rect x="1547.65" y="527.86" width="11.23" height="75.54" fill="#4f9f8f"/>
<rect x="1572.35" y="605.13" width="11.23" height="74.87" fill="#d8a24a"/>
<rect x="1572.35" y="531.85" width="11.23" height="73.27" fill="#4f9f8f"/>
<rect x="1597.06" y="597.07" width="11.23" height="82.93" fill="#d8a24a"/>
<rect x="1597.06" y="515.83" width="11.23" height="81.25" fill="#4f9f8f"/>
<rect x="1621.76" y="589.75" width="11.23" height="90.25" fill="#d8a24a"/>
<rect x="1621.76" y="500.96" width="11.23" height="88.79" fill="#4f9f8f"/>
<text x="1627.38" y="698" font-size="10" text-anchor="middle">2020</text>
<rect x="1646.47" y="589.53" width="11.23" height="90.47" fill="#d8a24a"/>
<rect x="1646.47" y="500.53" width="11.23" height="88.99" fill="#4f9f8f"/>
<rect x="1671.18" y="579.17" width="11.23" height="100.83" fill="#d8a24a"/>
<rect x="1671.18" y="479.83" width="11.23" height="99.34" fill="#4f9f8f"/>
<rect x="1695.88" y="584.33" width="11.23" height="95.67" fill="#d8a24a"/>
<rect x="1695.88" y="489.44" width="11.23" height="94.89" fill="#4f9f8f"/>
<rect x="1720.59" y="586.10" width="11.23" height="93.90" fill="#d8a24a"/>
<rect x="1720.59" y="493.79" width="11.23" height="92.31" fill="#4f9f8f"/>
<rect x="1745.29" y="578.11" width="11.23" height="101.89" fill="#d8a24a"/>
<rect x="1745.29" y="477.54" width="11.23" height="100.57" fill="#4f9f8f"/>
<text x="1750.91" y="698" font-size="10" text-anchor="middle">2025</text>
<text x="900.00" y="34" font-size="20" text-anchor="middle">Aandeel van twee landschap-gebaseerde vogelclusters in totaal getelde vogels (1958-2025)</text>
<text x="900.00" y="740" font-size="13" text-anchor="middle">Jaar</text>
<text x="22" y="380.00" font-size="13" text-anchor="middle" transform="rotate(-90 22 380.00)">Percentage van totaal getelde vogels</text>
<rect x="1410" y="50" width="18" height="18" fill="#d8a24a"/>
<text x="1434" y="64" font-size="13">open &amp; droog (2+6)</text>
<rect x="1590" y="50" width="18" height="18" fill="#4f9f8f"/>
<text x="1614" y="64" font-size="13">open en vochtig (3+5)</text>
</svg>