<svg xmlns="http://www.w3.org/2000/svg" width="1700" height="760" viewBox="0 0 1700 760">
<style>text{font-family:Arial,sans-serif;fill:#222}.axis{stroke:#333;stroke-width:1}.grid{stroke:#ddd;stroke-width:1}.l1{fill:none;stroke:#d8a24a;stroke-width:3}.l2{fill:none;stroke:#4f9f8f;stroke-width:3}</style>
<rect x="0" y="0" width="1700" height="760" fill="white"/>
<line class="grid" x1="90" y1="680.00" x2="1660" y2="680.00"/>
<text x="80" y="684.00" font-size="12" text-anchor="end">0</text>
<line class="grid" x1="90" y1="633.85" x2="1660" y2="633.85"/>
<text x="80" y="637.85" font-size="12" text-anchor="end">5</text>
<line class="grid" x1="90" y1="587.69" x2="1660" y2="587.69"/>
<text x="80" y="591.69" font-size="12" text-anchor="end">10</text>
<line class="grid" x1="90" y1="541.54" x2="1660" y2="541.54"/>
<text x="80" y="545.54" font-size="12" text-anchor="end">15</text>
<line class="grid" x1="90" y1="495.38" x2="1660" y2="495.38"/>
<text x="80" y="499.38" font-size="12" text-anchor="end">20</text>
<line class="grid" x1="90" y1="449.23" x2="1660" y2="449.23"/>
<text x="80" y="453.23" font-size="12" text-anchor="end">25</text>
<line class="grid" x1="90" y1="403.08" x2="1660" y2="403.08"/>
<text x="80" y="407.08" font-size="12" text-anchor="end">30</text>
<line class="grid" x1="90" y1="356.92" x2="1660" y2="356.92"/>
<text x="80" y="360.92" font-size="12" text-anchor="end">35</text>
<line class="grid" x1="90" y1="310.77" x2="1660" y2="310.77"/>
<text x="80" y="314.77" font-size="12" text-anchor="end">40</text>
<line class="grid" x1="90" y1="264.62" x2="1660" y2="264.62"/>
<text x="80" y="268.62" font-size="12" text-anchor="end">45</text>
<line class="grid" x1="90" y1="218.46" x2="1660" y2="218.46"/>
<text x="80" y="222.46" font-size="12" text-anchor="end">50</text>
<line class="grid" x1="90" y1="172.31" x2="1660" y2="172.31"/>
<text x="80" y="176.31" font-size="12" text-anchor="end">55</text>
<line class="grid" x1="90" y1="126.15" x2="1660" y2="126.15"/>
<text x="80" y="130.15" font-size="12" text-anchor="end">60</text>
<line class="grid" x1="90" y1="80.00" x2="1660" y2="80.00"/>
<text x="80" y="84.00" font-size="12" text-anchor="end">65</text>
<line class="axis" x1="90" y1="80" x2="90" y2="680"/>
<line class="axis" x1="90" y1="680" x2="1660" y2="680"/>
<text x="136.87" y="698" font-size="10" text-anchor="middle">1960</text>
<text x="254.03" y="698" font-size="10" text-anchor="middle">1965</text>
<text x="371.19" y="698" font-size="10" text-anchor="middle">1970</text>
<text x="488.36" y="698" font-size="10" text-anchor="middle">1975</text>
<text x="605.52" y="698" font-size="10" text-anchor="middle">1980</text>
<text x="722.69" y="698" font-size="10" text-anchor="middle">1985</text>
<text x="839.85" y="698" font-size="10" text-anchor="middle">1990</text>
<text x="957.01" y="698" font-size="10" text-anchor="middle">1995</text>
<text x="1074.18" y="698" font-size="10" text-anchor="middle">2000</text>
<text x="1191.34" y="698" font-size="10" text-anchor="middle">2005</text>
<text x="1308.51" y="698" font-size="10" text-anchor="middle">2010</text>
<text x="1425.67" y="698" font-size="10" text-anchor="middle">2015</text>
<text x="1542.84" y="698" font-size="10" text-anchor="middle">2020</text>
<text x="1660.00" y="698" font-size="10" text-anchor="middle">2025</text>
<path class="l1" d="M 160.30 365.75 L 183.73 381.66 L 207.16 395.68 L 230.60 411.75 L 254.03 422.75 L 277.46 434.88 L 300.90 447.60 L 324.33 451.06 L 347.76 450.35 L 371.19 453.23 L 394.63 454.95 L 418.06 457.31 L 441.49 452.52 L 464.93 460.82 L 488.36 415.72 L 511.79 364.19 L 535.22 312.37 L 558.66 260.51 L 582.09 207.00 L 605.52 155.95 L 628.96 85.07 L 652.39 89.86 L 675.82 136.59 L 699.25 135.67 L 722.69 139.50 L 746.12 164.00 L 769.55 222.43 L 792.99 297.95 L 816.42 356.75 L 839.85 378.33 L 863.28 448.16 L 886.72 510.71 L 910.15 554.87 L 933.58 563.64 L 957.01 561.16 L 980.45 557.49 L 1003.88 549.78 L 1027.31 544.67 L 1050.75 540.68 L 1074.18 537.49 L 1097.61 535.80 L 1121.04 533.60 L 1144.48 533.22 L 1167.91 538.99 L 1191.34 540.43 L 1214.78 545.14 L 1238.21 548.95 L 1261.64 551.11 L 1285.07 557.61 L 1308.51 560.04 L 1331.94 562.43 L 1355.37 565.32 L 1378.81 564.89 L 1402.24 565.21 L 1425.67 569.58 L 1449.10 567.38 L 1472.54 564.49 L 1495.97 560.73 L 1519.40 551.98 L 1542.84 545.65 L 1566.27 541.41 L 1589.70 534.53"/>
<path class="l2" d="M 160.30 406.68 L 183.73 416.04 L 207.16 430.36 L 230.60 446.14 L 254.03 458.50 L 277.46 473.55 L 300.90 488.45 L 324.33 498.45 L 347.76 507.26 L 371.19 520.41 L 394.63 532.36 L 418.06 544.18 L 441.49 552.23 L 464.93 558.72 L 488.36 572.67 L 511.79 586.39 L 535.22 598.45 L 558.66 609.76 L 582.09 621.38 L 605.52 631.81 L 628.96 643.53 L 652.39 645.91 L 675.82 644.23 L 699.25 646.54 L 722.69 648.01 L 746.12 646.67 L 769.55 642.82 L 792.99 634.26 L 816.42 626.17 L 839.85 619.41 L 863.28 609.20 L 886.72 597.36 L 910.15 586.59 L 933.58 574.88 L 957.01 567.25 L 980.45 562.25 L 1003.88 553.65 L 1027.31 548.22 L 1050.75 544.15 L 1074.18 540.48 L 1097.61 538.48 L 1121.04 535.95 L 1144.48 535.44 L 1167.91 541.00 L 1191.34 542.21 L 1214.78 546.80 L 1238.21 550.51 L 1261.64 552.59 L 1285.07 559.01 L 1308.51 561.21 L 1331.94 563.42 L 1355.37 566.11 L 1378.81 565.56 L 1402.24 565.79 L 1425.67 570.10 L 1449.10 567.87 L 1472.54 565.01 L 1495.97 561.32 L 1519.40 552.56 L 1542.84 546.19 L 1566.27 542.00 L 1589.70 535.08"/>
<text x="850.00" y="34" font-size="20" text-anchor="middle">7-jarig gemiddelde (plots 1 t/m 17a): aandeel van twee vogelclusters</text>
<text x="850.00" y="740" font-size="13" text-anchor="middle">Jaar</text>
<text x="22" y="380.00" font-size="13" text-anchor="middle" transform="rotate(-90 22 380.00)">Percentage van totaal getelde vogels</text>
<text x="1300" y="56" font-size="13" fill="#d8a24a">open &amp; droog (2+6), 7-jarig gemiddeld</text>
<text x="1300" y="78" font-size="13" fill="#4f9f8f">open en vochtig (3+5), 7-jarig gemiddeld</text>
<text x="90" y="722" font-size="11" fill="#666">Gecentreerd 7-jaarsvenster: waarden bestaan voor 1961-2022</text>
</svg>